<svg width="39" height="25" viewBox="0 0 39 25" fill="none" xmlns="http://www.w3.org/2000/svg">
<g clip-path="url(#clip0_375_327)">
<path d="M0 24.9939H39V0.00634766H0V24.9939Z" fill="black"/>
<path d="M0.45166 24.5455H38.5844V0.460938H0.45166V24.5455Z" fill="white"/>
<path d="M8.86302 13.802L9.60074 14.6555L10.363 13.8077H10.9738V14.0696L10.0185 15.1356L10.9738 16.2753V13.8077H12.698C13.0241 13.8077 13.5023 13.9598 13.5023 14.6421C13.5023 15.5992 12.8731 15.6105 12.5286 15.6105H11.6332V16.5372H10.3569L9.57719 15.6291L8.77855 16.5305H6.24084V13.8015H8.86302V13.802V13.802ZM16.6748 13.802H18.8495V14.3904H17.3403V14.9015H18.8076V15.4192H17.3403V15.9597H18.8495V16.5311H16.6748V13.802V13.802ZM14.4826 16.5378H13.8171V13.8082H15.547C15.8741 13.8082 16.3456 13.9546 16.3456 14.5389C16.3456 14.869 16.2489 15.1119 15.8859 15.2949C16.2002 15.3315 16.3216 15.5389 16.3216 15.9772L16.3456 16.5378H15.698L15.6801 16.0375C15.6745 15.8065 15.5833 15.575 15.354 15.575H14.4826V16.5378V16.5378ZM23.026 14.8659C23.8446 14.9071 23.9122 15.3192 23.9122 15.7575C23.9122 16.2691 23.4949 16.5434 23.0593 16.5434H21.6622V15.9591H22.7511C22.9359 15.9591 23.2108 15.9591 23.2108 15.6961C23.2108 15.5713 23.1622 15.4924 22.9656 15.4708C22.8128 15.4558 22.6597 15.4452 22.5064 15.4388C21.7676 15.4192 21.5961 15.0495 21.5961 14.5987C21.5961 14.0872 21.953 13.8071 22.3886 13.8071H23.7857V14.3925H22.7634C22.5309 14.3956 22.2796 14.3646 22.2796 14.6302C22.2796 14.7973 22.404 14.8308 22.5606 14.8468C22.6149 14.8473 22.9779 14.8659 23.026 14.8659V14.8659ZM20.5338 14.8659C21.3519 14.9071 21.42 15.3192 21.42 15.7575C21.42 16.2691 21.0023 16.5434 20.5671 16.5434H19.1695V15.9591H20.2584C20.4427 15.9591 20.7187 15.9591 20.7187 15.6961C20.7187 15.5713 20.67 15.4924 20.4734 15.4708C20.3854 15.4584 20.0618 15.4398 20.0142 15.4388C19.2755 15.4192 19.104 15.0495 19.104 14.5987C19.104 14.0872 19.4608 13.8071 19.896 13.8071H21.2936V14.3925H20.2712C20.0383 14.3956 19.7874 14.3646 19.7874 14.6302C19.7874 14.7973 19.9113 14.8308 20.069 14.8468C20.1227 14.8473 20.4857 14.8659 20.5338 14.8659V14.8659ZM11.7663 11.846H11.1007V9.11638H12.8306C13.1572 9.11638 13.6297 9.26283 13.6297 9.84712C13.6297 10.1766 13.533 10.4206 13.17 10.6031C13.4844 10.6397 13.6057 10.8471 13.6057 11.2854L13.6297 11.846H12.9826L12.9642 11.3462C12.9581 11.1147 12.868 10.8837 12.6376 10.8837H11.7668V11.846H11.7663V11.846ZM13.9687 11.846H14.6337V9.11328H13.9687V11.846ZM8.5451 9.11638H10.7193V9.70427H9.21166V10.2164H10.6779V10.7346H9.21166V11.2735H10.7193V11.846H8.5451V9.11638V9.11638ZM3.6893 11.846H5.02906V9.8203L5.9178 11.846H6.52292L7.43265 9.85382V11.846H8.09766V9.11638H7.0364L6.21985 10.9476L5.40637 9.11638H4.36302V11.7454L3.20142 9.11638H2.3219L1.13623 11.846H1.83811L2.09766 11.2369H3.42514L3.6893 11.846V11.846ZM18.462 11.2385H17.135L16.875 11.8475H15.9975C15.2598 11.8475 14.9326 11.2245 14.9485 10.469C14.971 9.34792 15.6289 9.11483 15.9315 9.11483H16.7997V9.70891H16.3886C15.9468 9.70891 15.6023 9.75532 15.6023 10.3948V10.5928C15.6053 11.074 15.8557 11.1879 16.0159 11.2214C16.0553 11.2307 16.128 11.2343 16.1547 11.2323L16.4424 11.2307L17.3588 9.11638H18.2393L19.3733 11.6784V9.11483H20.3557L21.4779 11.0049V9.11483H22.1429V11.8475H21.2357L20.0383 9.84866V11.8475H18.7257L18.462 11.2385V11.2385Z" fill="#00ACEC"/>
<path d="M23.7911 13.3822V1.23242H1.19336V10.6274L2.04063 8.70279H3.48022L3.95223 9.84764V8.70279H5.70565L6.23807 9.83629L6.75821 8.70279H12.9399C13.1816 8.70279 13.5082 8.7884 13.6541 9.05604V8.70279H14.9483V9.1169C15.1178 8.88586 15.3717 8.70279 15.8672 8.70279H18.5048L18.9886 9.81102V8.70279H20.5495L21.1055 9.6656V8.70279H22.5328V12.2601H20.9969L20.3555 11.2127V12.2601H18.408L18.0937 11.5654H17.4763L17.186 12.2601H15.964C15.6978 12.2363 15.0814 12.126 14.9483 11.7124V12.2601H12.6016V11.4808C12.6016 11.3705 12.5048 11.2369 12.3717 11.2369H12.1178V12.2601H7.12117V11.4561L6.74643 12.2601H5.73022L5.34319 11.4437V12.2601H3.34711L3.0809 11.6268H2.43943L2.16145 12.2601H1.19336V23.7513H23.7911V16.7085C23.6703 16.8431 23.4768 16.9524 23.1865 16.9524H21.2985V16.6842C21.1536 16.8431 20.9483 16.9524 20.6212 16.9524H15.299V16.2093C15.2867 16.1113 15.3353 15.9045 15.0691 15.9045H14.8516V16.9524H13.436V15.7451C13.2906 15.9901 12.9768 16.0014 12.771 16.0138H12.0205V16.9524H10.1335L9.58875 16.282L9.00821 16.9524H5.80292V13.3822H9.05684L9.6251 14.0279L10.2062 13.3822H12.7828C12.964 13.3936 13.3085 13.4792 13.436 13.6741V13.3822H15.6379C15.8314 13.3822 16.2062 13.4668 16.3638 13.7226V13.3822H19.1217V13.6983C19.2666 13.5039 19.4969 13.3822 19.8471 13.3822H21.6133V13.687C21.7464 13.4915 22.0976 13.3822 22.3034 13.3822H23.7911V13.3822ZM30.0103 13.0718C30.0103 13.5282 28.2855 13.0248 28.2855 14.1346C28.2855 14.6415 28.6925 14.871 29.1502 14.871C29.5111 14.871 29.7881 14.7957 30.0614 14.5394L30.1597 14.8004H31.0295C30.9799 14.7055 30.9722 14.5817 30.9722 14.4425V13.3007C30.9722 12.718 30.9026 12.2895 29.7558 12.2895C28.7985 12.2895 28.4329 12.5922 28.4329 13.1089H29.358C29.3811 12.8995 29.5618 12.8722 29.6959 12.8722C29.7983 12.8722 30.0103 12.8954 30.0103 13.0718V13.0718ZM35.015 14.4714V14.7978H35.8792V11.4427H34.9183V12.603C34.714 12.3606 34.5015 12.2864 34.1964 12.2864C33.6179 12.2864 33.1695 12.8124 33.1695 13.6236C33.1695 14.313 33.5396 14.8674 34.2701 14.8674C34.5809 14.8674 34.7888 14.77 35.015 14.4714V14.4714ZM32.9201 13.1264V12.3003C32.8787 12.2956 32.8367 12.2864 32.7947 12.2864C32.421 12.2864 32.1845 12.4679 32.0504 12.8505H32.0411V12.3565H31.1672V14.7973H32.1287V13.836C32.1287 13.3095 32.3278 13.1228 32.721 13.1228L32.9201 13.1264V13.1264ZM27.1787 12.719C27.1459 12.3704 26.9283 12.1698 26.5864 12.1698C26.2024 12.1698 25.971 12.5009 25.971 13.1481C25.971 13.6189 26.0729 14.0609 26.6273 14.0609C26.9795 14.0609 27.1459 13.8149 27.1879 13.4931H28.2374C28.1411 14.3595 27.5253 14.8803 26.6473 14.8803C25.5466 14.8803 24.88 14.2017 24.88 13.1104C24.88 12.0249 25.6106 11.3493 26.5408 11.3493C27.558 11.3493 28.1273 11.8573 28.2154 12.7185H27.1787V12.719V12.719Z" fill="#00ACEC"/>
<path d="M11.6333 15.0513H12.4622C12.734 15.0513 12.8308 14.8925 12.8308 14.7099C12.8308 14.5759 12.7432 14.3969 12.4647 14.3969H11.6333V15.0513ZM8.41525 14.3907H6.90654V14.9018H8.37276V15.4195H6.90654V15.96H8.43982L9.1719 15.1364L8.52429 14.3933L8.41525 14.3907ZM14.4823 15.0152H15.3112C15.583 15.0152 15.6798 14.893 15.6798 14.7099C15.6798 14.5759 15.5922 14.3969 15.3137 14.3969H14.4823V15.0152V15.0152ZM11.7659 10.3234H12.5948C12.8671 10.3234 12.9634 10.2017 12.9634 10.0187C12.9634 9.88509 12.8758 9.70459 12.5973 9.70459H11.7659V10.3234V10.3234ZM3.16781 10.6499H2.35791L2.75518 9.69531L3.16781 10.6499ZM17.791 9.69686L17.3948 10.6509H18.2077L17.791 9.69686Z" fill="white"/>
<path d="M37.6688 15.5459L29.5283 23.7455H30.6843L37.6688 16.7103V15.5459Z" fill="#3B4095"/>
<path d="M37.6689 17.8398L31.8071 23.7451H32.9621L37.6689 19.0048V17.8398Z" fill="#00ACEC"/>
<path d="M37.6691 20.1348L34.084 23.7452H35.241L37.6691 21.2987V20.1348Z" fill="#6CB35E"/>
<path d="M24.6177 22.454C24.618 22.2837 24.6517 22.1152 24.7167 21.958C24.7817 21.8009 24.8768 21.6581 24.9967 21.538C25.1165 21.4179 25.2586 21.3228 25.4149 21.258C25.5713 21.1933 25.7387 21.1602 25.9078 21.1606C26.0764 21.1605 26.2435 21.1939 26.3993 21.2588C26.5551 21.3238 26.6967 21.419 26.816 21.5392C26.9352 21.6593 27.0298 21.8019 27.0943 21.9589C27.1588 22.1159 27.1919 22.2841 27.1917 22.454C27.1925 22.6244 27.1598 22.7932 27.0956 22.9509C27.0315 23.1085 26.937 23.2518 26.8177 23.3726C26.6984 23.4934 26.5567 23.5893 26.4005 23.6547C26.2444 23.7202 26.0769 23.7539 25.9078 23.7541C25.7383 23.7543 25.5704 23.7208 25.4137 23.6555C25.2571 23.5903 25.1148 23.4945 24.9949 23.3737C24.8751 23.253 24.7801 23.1096 24.7153 22.9517C24.6506 22.7939 24.6174 22.6248 24.6177 22.454V22.454Z" fill="#00ACEC"/>
<path d="M27.0366 22.454C27.0367 22.3047 27.0075 22.1568 26.9508 22.0188C26.8941 21.8809 26.811 21.7555 26.7061 21.65C26.6013 21.5444 26.4768 21.4607 26.3398 21.4036C26.2028 21.3466 26.056 21.3173 25.9078 21.3174C25.7593 21.317 25.6123 21.3461 25.475 21.403C25.3377 21.4599 25.2129 21.5436 25.1078 21.6492C25.0026 21.7547 24.9192 21.8802 24.8622 22.0183C24.8053 22.1564 24.7759 22.3044 24.7759 22.454C24.7759 22.756 24.895 23.0456 25.107 23.2591C25.3189 23.4727 25.6065 23.5926 25.9063 23.5926C26.206 23.5926 26.4936 23.4727 26.7055 23.2591C26.9175 23.0456 27.0366 22.756 27.0366 22.454V22.454Z" fill="white"/>
<path d="M26.5478 23.1806H26.3394L25.9273 22.5117H25.6048V23.1806H25.4292V21.7305H26.0558C26.1772 21.7305 26.2985 21.7377 26.4065 21.8022C26.5145 21.8635 26.5678 21.9924 26.5678 22.1141C26.5678 22.3998 26.3696 22.505 26.1132 22.5117L26.5478 23.1806V23.1806Z" fill="#00ACEC"/>
<path d="M25.8748 22.3723C26.077 22.3723 26.3903 22.4063 26.3903 22.1103C26.3903 21.8865 26.1947 21.8597 26.016 21.8597H25.6055V22.3723H25.8748ZM30.0102 13.7194C30.0128 14.1763 29.8736 14.3207 29.5362 14.3207C29.3463 14.3207 29.2306 14.2367 29.2306 14.116C29.2311 13.7983 29.6964 13.8731 30.0102 13.7194V13.7194ZM34.9505 13.6003C34.9505 13.8839 34.8445 14.1681 34.5113 14.1681C34.1974 14.1681 34.1329 13.8705 34.1329 13.6137C34.1329 13.3445 34.2205 13.0361 34.5399 13.0361C34.8584 13.0361 34.9505 13.3296 34.9505 13.6003Z" fill="white"/>
</g>
<defs>
<clipPath id="clip0_375_327">
<rect width="39" height="25" fill="white"/>
</clipPath>
</defs>
</svg>
